<?xml version="1.0" encoding="utf-8"?>
<svg version="1.1" xmlns="http://www.w3.org/2000/svg" width="420" height="140" viewBox="0 0 420 140" fill="none">
  
  <rect width="420" height="140" fill="#FFFFFF" />
  
  <!-- Símbolo CMM Construtora -->
  <g id="symbol">
    <!-- Chevron Traseiro Esquerdo (Dark Grey) -->
    <path d="M 55 120 L 100 35 L 100 65 L 75 120 Z" fill="#2D2D2D" />
    
    <!-- Chevron Traseiro Direito (Light/Medium Grey) -->
    <path d="M 100 35 L 145 120 L 120 120 L 100 65 Z" fill="#6D6D6D" />

    <!-- Barra Azul Esquerda (Blue) -->
    <path d="M 25 120 L 55 120 L 90 25 L 60 25 Z" fill="#0B1D72" />
    
    <!-- Barra Azul Direita (Blue) -->
    <path d="M 105 120 L 135 120 L 170 25 L 140 25 Z" fill="#0B1D72" />
  </g>

  
  <!-- Texto CMM Vetorizado -->
  <g id="text-cmm" fill="#2D2D2D">
    <!-- C -->
    <path d="M 245 40 L 245 25 L 215 25 A 20 20 0 0 0 195 45 L 195 65 A 20 20 0 0 0 215 85 L 245 85 L 245 70 L 215 70 A 5 5 0 0 1 210 65 L 210 45 A 5 5 0 0 1 215 40 Z" />
    <!-- M 1 -->
    <path d="M 260 85 L 260 45 A 20 20 0 0 1 280 25 L 300 25 A 20 20 0 0 1 320 45 L 320 85 L 305 85 L 305 45 A 5 5 0 0 0 300 40 A 5 5 0 0 0 295 45 L 295 85 L 285 85 L 285 45 A 5 5 0 0 0 280 40 A 5 5 0 0 0 275 45 L 275 85 Z" />
    <!-- M 2 -->
    <path d="M 330 85 L 330 45 A 20 20 0 0 1 350 25 L 370 25 A 20 20 0 0 1 390 45 L 390 85 L 375 85 L 375 45 A 5 5 0 0 0 370 40 A 5 5 0 0 0 365 45 L 365 85 L 355 85 L 355 45 A 5 5 0 0 0 350 40 A 5 5 0 0 0 345 45 L 345 85 Z" />
  </g>

  
  <!-- Texto Construtora Vetorizado -->
  <g id="text-construtora" fill="#2D2D2D">
    <!-- C -->
    <path d="M 207 104 L 207 98 L 200 98 A 5 5 0 0 0 195 103 L 195 113 A 5 5 0 0 0 200 118 L 207 118 L 207 112 L 200 112 A 1 1 0 0 1 199 111 L 199 105 A 1 1 0 0 1 200 104 Z" />
    <!-- o -->
    <path d="M 213 103 L 213 113 A 5 5 0 0 0 218 118 L 222 118 A 5 5 0 0 0 227 113 L 227 103 A 5 5 0 0 0 222 98 L 218 98 A 5 5 0 0 0 213 103 Z M 217 103 A 1 1 0 0 1 218 102 L 222 102 A 1 1 0 0 1 223 103 L 223 113 A 1 1 0 0 1 222 114 L 218 114 A 1 1 0 0 1 217 113 Z" />
    <!-- n -->
    <path d="M 232 98 L 232 118 L 236 118 L 236 106 A 2 2 0 0 1 238 104 L 240 104 A 2 2 0 0 1 242 106 L 242 118 L 246 118 L 246 105 A 7 7 0 0 0 241 98 A 7 7 0 0 0 236 102 L 236 98 Z" />
    <!-- s -->
    <path d="M 251 106 L 255 106 A 1.5 1.5 0 0 0 256.5 104.5 A 1.5 1.5 0 0 0 255 103 L 251 103 A 5 5 0 0 0 246 108 L 246 113 A 5 5 0 0 0 251 118 L 255 118 A 5 5 0 0 0 260 113 L 260 112 L 256 112 L 256 113 A 1 1 0 0 1 255 114 L 251 114 A 1 1 0 0 1 250 113 L 250 108 A 1 1 0 0 1 251 107 Z" />
    <!-- t -->
    <path d="M 264 98 L 264 102 L 262 102 L 262 105 L 264 105 L 264 114 A 4 4 0 0 0 268 118 L 271 118 L 271 114 L 268 114 L 268 105 L 271 105 L 271 102 L 268 102 L 268 98 Z" />
    <!-- r -->
    <path d="M 275 98 L 275 118 L 279 118 L 279 105 A 2 2 0 0 1 281 103 L 284 103 L 284 98 L 281 98 A 4 4 0 0 0 279 100 L 279 98 Z" />
    <!-- u -->
    <path d="M 288 98 L 288 113 A 5 5 0 0 0 293 118 A 5 5 0 0 0 298 113 L 298 98 L 294 98 L 294 113 A 1 1 0 0 1 293 114 A 1 1 0 0 1 292 113 L 292 98 Z" />
    <!-- t -->
    <path d="M 304 98 L 304 102 L 302 102 L 302 105 L 304 105 L 304 114 A 4 4 0 0 0 308 118 L 311 118 L 311 114 L 308 114 L 308 105 L 311 105 L 311 102 L 308 102 L 308 98 Z" />
    <!-- o -->
    <path d="M 315 103 L 315 113 A 5 5 0 0 0 320 118 L 324 118 A 5 5 0 0 0 329 113 L 329 103 A 5 5 0 0 0 324 98 L 320 98 A 5 5 0 0 0 315 103 Z M 319 103 A 1 1 0 0 1 320 102 L 324 102 A 1 1 0 0 1 325 103 L 325 113 A 1 1 0 0 1 324 114 L 320 114 A 1 1 0 0 1 319 113 Z" />
    <!-- r -->
    <path d="M 333 98 L 333 118 L 337 118 L 337 105 A 2 2 0 0 1 339 103 L 342 103 L 342 98 L 339 98 A 4 4 0 0 0 337 100 L 337 98 Z" />
    <!-- a -->
    <path d="M 346 103 L 346 113 A 5 5 0 0 0 351 118 L 356 118 L 356 98 L 352 98 L 352 102 A 4 4 0 0 0 349 98 A 5 5 0 0 0 346 103 Z M 350 103 A 1 1 0 0 1 351 102 L 352 102 L 352 114 L 351 114 A 1 1 0 0 1 350 113 Z" />
  </g>


</svg>
